<?xml version="1.0" encoding="UTF-8"?>
<svg width="1247px" height="1247px" viewBox="0 0 1247 1247" version="1.1" xmlns="http://www.w3.org/2000/svg" xmlns:xlink="http://www.w3.org/1999/xlink">
    <title>Secure-tea-white</title>
    <defs></defs>
    <g id="Page-1" stroke="none" stroke-width="1" fill="none" fill-rule="evenodd">
        <g id="Secure-tea-white" transform="translate(10.000000, 10.000000)">
            <path d="M398.731724,515.148352 C392.943637,516.112974 386.20147,514.989348 385.247389,515.148352 C384.293309,515.307355 383.558743,516.836895 383,517.395604 C382.441257,517.954314 382.435049,519.07794 383,519.642857 C383.564951,520.207774 384.682438,521.325193 385.247389,521.89011 C385.812341,522.455027 386.929827,523.572446 387.494778,524.137363 C388.05973,524.70228 389.177216,525.819698 389.742168,526.384615 C390.307119,526.949533 391.424605,528.066951 391.989557,528.631868 C392.554508,529.196785 392.733178,530.127283 394.236946,530.879121 C395.740714,531.630959 398.166773,532.561456 398.731724,533.126374 C399.296676,533.691291 400.414162,534.808709 400.979114,535.373626 C401.544065,535.938544 401.722735,536.869041 403.226503,537.620879 C404.730271,538.372717 406.217513,539.116294 407.721281,539.868132 C409.225049,540.61997 411.651108,541.550467 412.21606,542.115385 C412.781011,542.680302 412.959681,543.610799 414.463449,544.362637 C415.967216,545.114476 417.454459,545.858052 418.958227,546.60989 C420.461995,547.361728 422.888054,548.292226 423.453005,548.857143 C424.017957,549.42206 424.196627,550.352557 425.700395,551.104396 C427.204162,551.856234 428.691405,552.59981 430.195173,553.351648 C431.698941,554.103487 433.186184,554.847063 434.689951,555.598901 C436.193719,556.350739 437.680962,557.094316 439.18473,557.846154 C440.688498,558.597992 442.17574,559.341568 443.679508,560.093407 C445.183276,560.845245 446.670519,561.588821 448.174287,562.340659 C449.678054,563.092498 451.165297,563.836074 452.669065,564.587912 C454.172833,565.33975 454.628565,565.990124 457.163843,566.835165 C459.699121,567.680206 460.302268,568.181537 463.906011,569.082418 C467.509754,569.983299 469.291825,570.428789 472.895568,571.32967 C476.499311,572.230551 476.097037,572.6123 481.885124,573.576923 C487.673212,574.541546 478.436996,574.765961 495.36946,575.824176 C512.301924,576.882391 531.327687,575.824176 531.327687,575.824176 L535.822465,573.576923 L540.317243,571.32967 L542.564633,569.082418 L547.059411,566.835165 L551.554189,564.587912 L556.048968,562.340659 L560.543746,560.093407 L583.017638,555.598901 L605.49153,553.351648 L627.965422,551.104396 L636.954979,551.104396 L639.202368,555.598901 L641.449757,562.340659 L643.697146,566.835165 L643.697146,569.082418 L639.202368,569.082418 L616.728476,569.082418 L612.233698,569.082418 L607.738919,571.32967 L605.49153,573.576923 L600.996752,575.824176 L598.749362,578.071429 L594.254584,580.318681 L592.007195,582.565934 L589.759806,584.813187 L587.512417,587.06044 L585.265027,589.307692 L580.770249,591.554945 L578.52286,593.802198 L576.275471,596.049451 L574.028081,598.296703 L571.780692,600.543956 L569.533303,602.791209 L567.285914,605.038462 L565.038525,607.285714 L562.791135,609.532967 L560.543746,611.78022 L558.296357,614.027473 L556.048968,616.274725 L553.801579,618.521978 L551.554189,620.769231 L549.3068,623.016484 L547.059411,625.263736 L544.812022,629.758242 L542.564633,632.005495 L540.317243,634.252747 L538.069854,638.747253 L535.822465,640.994505 L533.575076,643.241758 L531.327687,647.736264 L529.080298,649.983516 L526.832908,654.478022 L524.585519,656.725275 L522.33813,661.21978 L520.090741,663.467033 L517.843352,667.961538 L515.595962,672.456044 L513.348573,676.950549 L511.101184,679.197802 L508.853795,683.692308 L506.606406,688.186813 L504.359016,692.681319 L502.111627,697.175824 L499.864238,701.67033 L497.616849,706.164835 L495.36946,710.659341 L493.12207,715.153846 L490.874681,719.648352 L488.627292,724.142857 L486.379903,728.637363 L484.132514,733.131868 L481.885124,737.626374 L481.885124,742.120879 L486.379903,742.120879 L490.874681,739.873626 L497.616849,737.626374 L502.111627,735.379121 L506.606406,733.131868 L511.101184,730.884615 L515.595962,728.637363 L520.090741,726.39011 L524.585519,724.142857 L529.080298,721.895604 L531.327687,719.648352 L535.822465,717.401099 L540.317243,715.153846 L544.812022,712.906593 L549.3068,710.659341 L553.801579,708.412088 L556.048968,706.164835 L560.543746,703.917582 L565.038525,701.67033 L567.285914,699.423077 L571.780692,697.175824 L574.028081,694.928571 L576.275471,692.681319 L580.770249,690.434066 L583.017638,688.186813 L587.512417,685.93956 L589.759806,683.692308 L592.007195,681.445055 L596.501973,679.197802 L598.749362,676.950549 L600.996752,674.703297 L603.244141,672.456044 L605.49153,670.208791 L607.738919,667.961538 L609.986308,665.714286 L612.233698,663.467033 L614.481087,661.21978 L616.728476,658.972527 L618.975865,656.725275 L621.223254,654.478022 L623.470644,652.230769 L625.718033,649.983516 L627.965422,647.736264 L630.212811,645.489011 L632.4602,643.241758 L634.70759,640.994505 L636.954979,636.5 L639.202368,634.252747 L641.449757,632.005495 L643.697146,629.758242 L645.944536,625.263736 L648.191925,623.016484 L650.439314,620.769231 L652.686703,616.274725 L654.934092,611.78022 L657.181481,607.285714 L654.934092,584.813187 L654.934092,580.318681 L657.181481,580.318681 L661.67626,582.565934 L668.418427,584.813187 L672.913206,587.06044 L672.913206,596.049451 L670.665817,618.521978 L668.418427,640.994505 L666.171038,661.21978 L663.923649,667.961538 L661.67626,672.456044 L659.428871,676.950549 L657.181481,681.445055 L654.934092,683.692308 L652.686703,688.186813 L648.191925,692.681319 L648.191925,728.637363 L650.439314,742.120879 L652.686703,751.10989 L654.934092,760.098901 L657.181481,766.840659 L659.428871,771.335165 L661.67626,775.82967 L663.923649,780.324176 L666.171038,784.818681 L668.418427,789.313187 L670.665817,793.807692 L672.913206,798.302198 L675.160595,800.549451 L677.407984,805.043956 L679.655373,809.538462 L681.902763,814.032967 L684.150152,816.28022 L686.397541,820.774725 L688.64493,823.021978 L690.892319,827.516484 L693.139709,829.763736 L695.387098,832.010989 L697.634487,834.258242 L699.881876,836.505495 L702.129265,838.752747 L704.376655,841 L706.624044,841 L706.624044,838.752747 L708.871433,825.269231 L711.118822,730.884615 L708.871433,703.917582 L706.624044,685.93956 L704.376655,670.208791 L702.38003,658.229774 L702.129265,656.725275 L699.881876,640.994505 L697.634487,627.510989 L695.387098,614.027473 L693.139709,602.791209 L688.64493,591.554945 L688.64493,587.06044 L690.892319,584.813187 L693.139709,584.813187 L695.387098,587.06044 L697.634487,591.554945 L699.881876,596.049451 L702.129265,600.543956 L704.376655,605.038462 L706.624044,609.532967 L708.871433,611.78022 L711.118822,614.027473 L713.366211,616.274725 L715.6136,618.521978 L720.108379,620.769231 L722.355768,623.016484 L724.603157,625.263736 L729.097936,627.510989 L729.097936,625.263736 L726.850546,623.016484 L724.603157,620.769231 L722.355768,618.521978 L720.108379,616.274725 L717.86099,614.027473 L715.6136,611.78022 L713.366211,609.532967 L711.118822,607.285714 L706.624044,602.791209 L706.624044,593.802198 L708.871433,593.802198 L711.118822,598.296703 L720.108379,600.543956 L729.097936,602.791209 L740.334882,605.038462 L744.301939,606.360734 L747.077049,607.285714 L747.077049,605.038462 L742.582271,602.791209 L735.840103,600.543956 L729.097936,598.296703 L722.355768,596.049451 L715.6136,593.802198 L713.366211,593.802198 L711.118822,589.307692 L708.871433,587.06044 L706.624044,582.565934 L706.624044,580.318681 L713.366211,580.318681 L720.108379,582.565934 L724.603157,584.813187 L733.592714,584.813187 L747.077049,582.565934 L758.313995,582.565934 L758.313995,580.318681 L735.840103,580.318681 L724.603157,580.318681 L720.108379,578.071429 L717.86099,575.824176 L713.366211,573.576923 L711.118822,571.32967 L708.871433,569.082418 L711.118822,562.340659 L711.118822,551.104396 L708.871433,542.115385 L711.118822,544.362637 L720.108379,546.60989 L731.345325,546.60989 L738.087492,544.362637 L740.334882,542.115385 L742.582271,539.868132 L744.82966,537.620879 L747.077049,535.373626 L749.324438,530.879121 L753.819217,528.631868 L758.313993,520.82148 L757.334471,515.148354 L753.819217,510.653846 L749.324438,508.406593 L747.077049,506.159341 L747.077049,503.912088 L751.571828,503.912088 L756.066606,501.664835 L762.808774,499.417582 L771.79833,499.417582 L778.540498,501.664835 L783.035276,503.912088 L787.530055,503.912088 L785.282665,501.664835 L780.787887,499.417582 L774.045719,497.17033 L760.561384,497.17033 L753.819217,499.417582 L749.324438,501.664835 L742.582271,501.664835 L740.334882,499.417582 L738.087492,494.923077 L735.840103,492.675824 L733.592714,490.428571 L731.345325,488.181319 L729.097936,485.934066 L724.603157,483.686813 L722.355768,481.43956 L722.355768,474.697802 L724.603157,467.956044 L726.850546,463.461538 L726.850546,449.978022 L724.603157,443.236264 L722.355768,438.741758 L720.108379,434.247253 L715.6136,432 L715.6136,434.247253 L717.86099,436.494505 L720.108379,440.989011 L722.355768,445.483516 L724.603157,452.225275 L724.603157,461.214286 L722.355768,465.708791 L720.108379,472.450549 L720.108379,476.945055 L717.86099,476.945055 L715.6136,474.697802 L713.366211,470.203297 L708.871427,465.70879 L702.12927,465.70879 L697.634489,467.956043 L695.387098,472.450549 L688.64493,476.945055 L686.397541,479.192308 L684.150152,481.43956 L681.902763,483.686813 L679.655373,485.934066 L677.407984,492.675824 L677.407984,503.912088 L679.655373,512.901099 L681.902763,515.148352 L675.160595,512.901099 L661.67626,512.901099 L654.934092,515.148352 L652.686703,512.901099 L650.439314,510.653846 L648.191925,506.159341 L645.944536,503.912088 L643.697146,499.417582 L641.449757,485.934066 L643.697146,465.708791 L641.449757,465.708791 L639.202368,476.945055 L639.202368,492.675824 L639.202368,499.417582 L641.449757,503.912088 L643.697146,510.653846 L643.697146,517.395604 L641.449757,517.395604 L636.954979,515.148352 L634.70759,512.901099 L630.212811,510.653846 L630.212811,508.406593 L627.965422,501.664835 L625.718033,494.923077 L623.470644,488.181319 L621.223254,481.43956 L618.975865,476.945055 L616.728476,476.945055 L618.975865,483.686813 L621.223254,494.923077 L623.470644,503.912088 L625.718033,510.653846 L627.965422,515.148352 L627.965422,517.395604 L621.223254,515.148352 L616.728476,512.901099 L614.481087,510.653846 L612.233698,508.406593 L609.986308,506.159341 L607.738919,503.912088 L605.49153,501.664835 L603.244141,499.417582 L600.996752,497.17033 L598.749362,494.923077 L596.501973,494.923077 L598.749362,499.417582 L600.996752,501.664835 L603.244141,503.912088 L605.49153,506.159341 L607.738919,510.653846 L609.986308,512.901099 L612.233698,515.148352 L614.481087,517.395604 L618.975865,519.642857 L623.470644,521.89011 L627.965422,524.137363 L634.70759,526.384615 L636.954979,528.631868 L639.202368,530.879121 L639.202368,533.126374 L636.954979,535.373626 L634.70759,535.373626 L621.223254,533.126374 L609.986308,530.879121 L596.501973,528.631868 L583.017638,526.384615 L569.533303,524.137363 L553.801579,521.89011 L538.069854,519.642857 L520.090741,517.395604 C520.090741,517.395604 494.148796,515.233907 493.12207,515.148352 C492.095344,515.062796 463.906011,512.901099 463.906011,512.901099 C431.318868,512.901099 404.519812,514.183729 398.731724,515.148352 Z" id="Wasp-icon" stroke="#4A4A4A" fill="#000000"></path>
            <path d="M1107.25932,360.560775 L880.603134,473.111204 C880.603134,473.111204 944.619894,582.222382 899.046667,712.438189 C853.473441,842.653996 735.770413,889.888186 735.770413,889.888186 L846.652625,1117.40202 L911.623398,1086.87825 L878.827199,961.088032 L982.504028,847.549363 L1007.51696,835.865341 L1128.07638,854.264781 L1166.8958,741.08682 L1061.19219,683.820812 L1047.8951,659.139585 L1035.38499,505.809171 L1138.43848,426.110371 L1107.25932,360.560775 Z M213.547296,228.994933 L393.757854,406.659735 C393.757854,406.659735 476.082682,310.607575 614.041338,311.303787 C751.999993,311.999999 834.981154,407.91245 834.981154,407.91245 L1013.99999,229 L963.986786,177.506496 L855.727198,249.4692 L714.620403,188.405407 L695.429529,168.559161 L673.576234,48.5777191 L553.926003,48.7203757 L534.193658,167.30909 L515.18621,187.917162 L374.282347,249.665201 L265.374716,178.173601 L213.547296,228.994933 Z M117.844433,361.679348 L344.500622,474.229777 C344.500622,474.229777 280.483863,583.340955 326.057089,713.556762 C371.630316,843.77257 489.333343,891.006759 489.333343,891.006759 L378.451131,1118.52059 L313.480358,1087.99682 L346.276557,962.206605 L242.599728,848.667936 L217.586796,836.983914 L97.0273779,855.383354 L58.2079574,742.205393 L163.911567,684.939385 L177.208661,660.258159 L189.718769,506.927744 L86.6652766,427.228944 L117.844433,361.679348 Z" id="Gear" fill="#3EA6E9"></path>
            <circle id="Outer-ring" stroke="#3EA6E9" stroke-width="20" cx="613.5" cy="613.5" r="613.5"></circle>
        </g>
    </g>
</svg>