<?xml version="1.0" encoding="UTF-8"?>
<svg width="1247px" height="1247px" viewBox="0 0 1247 1247" version="1.1" xmlns="http://www.w3.org/2000/svg" xmlns:xlink="http://www.w3.org/1999/xlink">
    <title>Secure-tea-black</title>
    <defs></defs>
    <g id="Page-1" stroke="none" stroke-width="1" fill="none" fill-rule="evenodd">
        <g id="Secure-tea-black" transform="translate(10.000000, 10.000000)">
            <circle id="Outer-ring" stroke="#3EA6E9" stroke-width="20" fill="#000000" cx="613.5" cy="613.5" r="613.5"></circle>
            <path d="M406.731724,516.148352 C400.943637,517.112974 394.20147,515.989348 393.247389,516.148352 C392.293309,516.307355 391.558743,517.836895 391,518.395604 C390.441257,518.954314 390.435049,520.07794 391,520.642857 C391.564951,521.207774 392.682438,522.325193 393.247389,522.89011 C393.812341,523.455027 394.929827,524.572446 395.494778,525.137363 C396.05973,525.70228 397.177216,526.819698 397.742168,527.384615 C398.307119,527.949533 399.424605,529.066951 399.989557,529.631868 C400.554508,530.196785 400.733178,531.127283 402.236946,531.879121 C403.740714,532.630959 406.166773,533.561456 406.731724,534.126374 C407.296676,534.691291 408.414162,535.808709 408.979114,536.373626 C409.544065,536.938544 409.722735,537.869041 411.226503,538.620879 C412.730271,539.372717 414.217513,540.116294 415.721281,540.868132 C417.225049,541.61997 419.651108,542.550467 420.21606,543.115385 C420.781011,543.680302 420.959681,544.610799 422.463449,545.362637 C423.967216,546.114476 425.454459,546.858052 426.958227,547.60989 C428.461995,548.361728 430.888054,549.292226 431.453005,549.857143 C432.017957,550.42206 432.196627,551.352557 433.700395,552.104396 C435.204162,552.856234 436.691405,553.59981 438.195173,554.351648 C439.698941,555.103487 441.186184,555.847063 442.689951,556.598901 C444.193719,557.350739 445.680962,558.094316 447.18473,558.846154 C448.688498,559.597992 450.17574,560.341568 451.679508,561.093407 C453.183276,561.845245 454.670519,562.588821 456.174287,563.340659 C457.678054,564.092498 459.165297,564.836074 460.669065,565.587912 C462.172833,566.33975 462.628565,566.990124 465.163843,567.835165 C467.699121,568.680206 468.302268,569.181537 471.906011,570.082418 C475.509754,570.983299 477.291825,571.428789 480.895568,572.32967 C484.499311,573.230551 484.097037,573.6123 489.885124,574.576923 C495.673212,575.541546 486.436996,575.765961 503.36946,576.824176 C520.301924,577.882391 539.327687,576.824176 539.327687,576.824176 L543.822465,574.576923 L548.317243,572.32967 L550.564633,570.082418 L555.059411,567.835165 L559.554189,565.587912 L564.048968,563.340659 L568.543746,561.093407 L591.017638,556.598901 L613.49153,554.351648 L635.965422,552.104396 L644.954979,552.104396 L647.202368,556.598901 L649.449757,563.340659 L651.697146,567.835165 L651.697146,570.082418 L647.202368,570.082418 L624.728476,570.082418 L620.233698,570.082418 L615.738919,572.32967 L613.49153,574.576923 L608.996752,576.824176 L606.749362,579.071429 L602.254584,581.318681 L600.007195,583.565934 L597.759806,585.813187 L595.512417,588.06044 L593.265027,590.307692 L588.770249,592.554945 L586.52286,594.802198 L584.275471,597.049451 L582.028081,599.296703 L579.780692,601.543956 L577.533303,603.791209 L575.285914,606.038462 L573.038525,608.285714 L570.791135,610.532967 L568.543746,612.78022 L566.296357,615.027473 L564.048968,617.274725 L561.801579,619.521978 L559.554189,621.769231 L557.3068,624.016484 L555.059411,626.263736 L552.812022,630.758242 L550.564633,633.005495 L548.317243,635.252747 L546.069854,639.747253 L543.822465,641.994505 L541.575076,644.241758 L539.327687,648.736264 L537.080298,650.983516 L534.832908,655.478022 L532.585519,657.725275 L530.33813,662.21978 L528.090741,664.467033 L525.843352,668.961538 L523.595962,673.456044 L521.348573,677.950549 L519.101184,680.197802 L516.853795,684.692308 L514.606406,689.186813 L512.359016,693.681319 L510.111627,698.175824 L507.864238,702.67033 L505.616849,707.164835 L503.36946,711.659341 L501.12207,716.153846 L498.874681,720.648352 L496.627292,725.142857 L494.379903,729.637363 L492.132514,734.131868 L489.885124,738.626374 L489.885124,743.120879 L494.379903,743.120879 L498.874681,740.873626 L505.616849,738.626374 L510.111627,736.379121 L514.606406,734.131868 L519.101184,731.884615 L523.595962,729.637363 L528.090741,727.39011 L532.585519,725.142857 L537.080298,722.895604 L539.327687,720.648352 L543.822465,718.401099 L548.317243,716.153846 L552.812022,713.906593 L557.3068,711.659341 L561.801579,709.412088 L564.048968,707.164835 L568.543746,704.917582 L573.038525,702.67033 L575.285914,700.423077 L579.780692,698.175824 L582.028081,695.928571 L584.275471,693.681319 L588.770249,691.434066 L591.017638,689.186813 L595.512417,686.93956 L597.759806,684.692308 L600.007195,682.445055 L604.501973,680.197802 L606.749362,677.950549 L608.996752,675.703297 L611.244141,673.456044 L613.49153,671.208791 L615.738919,668.961538 L617.986308,666.714286 L620.233698,664.467033 L622.481087,662.21978 L624.728476,659.972527 L626.975865,657.725275 L629.223254,655.478022 L631.470644,653.230769 L633.718033,650.983516 L635.965422,648.736264 L638.212811,646.489011 L640.4602,644.241758 L642.70759,641.994505 L644.954979,637.5 L647.202368,635.252747 L649.449757,633.005495 L651.697146,630.758242 L653.944536,626.263736 L656.191925,624.016484 L658.439314,621.769231 L660.686703,617.274725 L662.934092,612.78022 L665.181481,608.285714 L662.934092,585.813187 L662.934092,581.318681 L665.181481,581.318681 L669.67626,583.565934 L676.418427,585.813187 L680.913206,588.06044 L680.913206,597.049451 L678.665817,619.521978 L676.418427,641.994505 L674.171038,662.21978 L671.923649,668.961538 L669.67626,673.456044 L667.428871,677.950549 L665.181481,682.445055 L662.934092,684.692308 L660.686703,689.186813 L656.191925,693.681319 L656.191925,729.637363 L658.439314,743.120879 L660.686703,752.10989 L662.934092,761.098901 L665.181481,767.840659 L667.428871,772.335165 L669.67626,776.82967 L671.923649,781.324176 L674.171038,785.818681 L676.418427,790.313187 L678.665817,794.807692 L680.913206,799.302198 L683.160595,801.549451 L685.407984,806.043956 L687.655373,810.538462 L689.902763,815.032967 L692.150152,817.28022 L694.397541,821.774725 L696.64493,824.021978 L698.892319,828.516484 L701.139709,830.763736 L703.387098,833.010989 L705.634487,835.258242 L707.881876,837.505495 L710.129265,839.752747 L712.376655,842 L714.624044,842 L714.624044,839.752747 L716.871433,826.269231 L719.118822,731.884615 L716.871433,704.917582 L714.624044,686.93956 L712.376655,671.208791 L710.38003,659.229774 L710.129265,657.725275 L707.881876,641.994505 L705.634487,628.510989 L703.387098,615.027473 L701.139709,603.791209 L696.64493,592.554945 L696.64493,588.06044 L698.892319,585.813187 L701.139709,585.813187 L703.387098,588.06044 L705.634487,592.554945 L707.881876,597.049451 L710.129265,601.543956 L712.376655,606.038462 L714.624044,610.532967 L716.871433,612.78022 L719.118822,615.027473 L721.366211,617.274725 L723.6136,619.521978 L728.108379,621.769231 L730.355768,624.016484 L732.603157,626.263736 L737.097936,628.510989 L737.097936,626.263736 L734.850546,624.016484 L732.603157,621.769231 L730.355768,619.521978 L728.108379,617.274725 L725.86099,615.027473 L723.6136,612.78022 L721.366211,610.532967 L719.118822,608.285714 L714.624044,603.791209 L714.624044,594.802198 L716.871433,594.802198 L719.118822,599.296703 L728.108379,601.543956 L737.097936,603.791209 L748.334882,606.038462 L752.301939,607.360734 L755.077049,608.285714 L755.077049,606.038462 L750.582271,603.791209 L743.840103,601.543956 L737.097936,599.296703 L730.355768,597.049451 L723.6136,594.802198 L721.366211,594.802198 L719.118822,590.307692 L716.871433,588.06044 L714.624044,583.565934 L714.624044,581.318681 L721.366211,581.318681 L728.108379,583.565934 L732.603157,585.813187 L741.592714,585.813187 L755.077049,583.565934 L766.313995,583.565934 L766.313995,581.318681 L743.840103,581.318681 L732.603157,581.318681 L728.108379,579.071429 L725.86099,576.824176 L721.366211,574.576923 L719.118822,572.32967 L716.871433,570.082418 L719.118822,563.340659 L719.118822,552.104396 L716.871433,543.115385 L719.118822,545.362637 L728.108379,547.60989 L739.345325,547.60989 L746.087492,545.362637 L748.334882,543.115385 L750.582271,540.868132 L752.82966,538.620879 L755.077049,536.373626 L757.324438,531.879121 L761.819217,529.631868 L766.313993,521.82148 L765.334471,516.148354 L761.819217,511.653846 L757.324438,509.406593 L755.077049,507.159341 L755.077049,504.912088 L759.571828,504.912088 L764.066606,502.664835 L770.808774,500.417582 L779.79833,500.417582 L786.540498,502.664835 L791.035276,504.912088 L795.530055,504.912088 L793.282665,502.664835 L788.787887,500.417582 L782.045719,498.17033 L768.561384,498.17033 L761.819217,500.417582 L757.324438,502.664835 L750.582271,502.664835 L748.334882,500.417582 L746.087492,495.923077 L743.840103,493.675824 L741.592714,491.428571 L739.345325,489.181319 L737.097936,486.934066 L732.603157,484.686813 L730.355768,482.43956 L730.355768,475.697802 L732.603157,468.956044 L734.850546,464.461538 L734.850546,450.978022 L732.603157,444.236264 L730.355768,439.741758 L728.108379,435.247253 L723.6136,433 L723.6136,435.247253 L725.86099,437.494505 L728.108379,441.989011 L730.355768,446.483516 L732.603157,453.225275 L732.603157,462.214286 L730.355768,466.708791 L728.108379,473.450549 L728.108379,477.945055 L725.86099,477.945055 L723.6136,475.697802 L721.366211,471.203297 L716.871427,466.70879 L710.12927,466.70879 L705.634489,468.956043 L703.387098,473.450549 L696.64493,477.945055 L694.397541,480.192308 L692.150152,482.43956 L689.902763,484.686813 L687.655373,486.934066 L685.407984,493.675824 L685.407984,504.912088 L687.655373,513.901099 L689.902763,516.148352 L683.160595,513.901099 L669.67626,513.901099 L662.934092,516.148352 L660.686703,513.901099 L658.439314,511.653846 L656.191925,507.159341 L653.944536,504.912088 L651.697146,500.417582 L649.449757,486.934066 L651.697146,466.708791 L649.449757,466.708791 L647.202368,477.945055 L647.202368,493.675824 L647.202368,500.417582 L649.449757,504.912088 L651.697146,511.653846 L651.697146,518.395604 L649.449757,518.395604 L644.954979,516.148352 L642.70759,513.901099 L638.212811,511.653846 L638.212811,509.406593 L635.965422,502.664835 L633.718033,495.923077 L631.470644,489.181319 L629.223254,482.43956 L626.975865,477.945055 L624.728476,477.945055 L626.975865,484.686813 L629.223254,495.923077 L631.470644,504.912088 L633.718033,511.653846 L635.965422,516.148352 L635.965422,518.395604 L629.223254,516.148352 L624.728476,513.901099 L622.481087,511.653846 L620.233698,509.406593 L617.986308,507.159341 L615.738919,504.912088 L613.49153,502.664835 L611.244141,500.417582 L608.996752,498.17033 L606.749362,495.923077 L604.501973,495.923077 L606.749362,500.417582 L608.996752,502.664835 L611.244141,504.912088 L613.49153,507.159341 L615.738919,511.653846 L617.986308,513.901099 L620.233698,516.148352 L622.481087,518.395604 L626.975865,520.642857 L631.470644,522.89011 L635.965422,525.137363 L642.70759,527.384615 L644.954979,529.631868 L647.202368,531.879121 L647.202368,534.126374 L644.954979,536.373626 L642.70759,536.373626 L629.223254,534.126374 L617.986308,531.879121 L604.501973,529.631868 L591.017638,527.384615 L577.533303,525.137363 L561.801579,522.89011 L546.069854,520.642857 L528.090741,518.395604 C528.090741,518.395604 502.148796,516.233907 501.12207,516.148352 C500.095344,516.062796 471.906011,513.901099 471.906011,513.901099 C439.318868,513.901099 412.519812,515.183729 406.731724,516.148352 Z" id="Wasp-icon" stroke="#4A4A4A" fill="#FFFFFF"></path>
            <path d="M1115.25932,361.560775 L888.603134,474.111204 C888.603134,474.111204 952.619894,583.222382 907.046667,713.438189 C861.473441,843.653996 743.770413,890.888186 743.770413,890.888186 L854.652625,1118.40202 L919.623398,1087.87825 L886.827199,962.088032 L990.504028,848.549363 L1015.51696,836.865341 L1136.07638,855.264781 L1174.8958,742.08682 L1069.19219,684.820812 L1055.8951,660.139585 L1043.38499,506.809171 L1146.43848,427.110371 L1115.25932,361.560775 Z M221.547296,229.994933 L401.757854,407.659735 C401.757854,407.659735 484.082682,311.607575 622.041338,312.303787 C759.999993,312.999999 842.981154,408.91245 842.981154,408.91245 L1021.99999,230 L971.986786,178.506496 L863.727198,250.4692 L722.620403,189.405407 L703.429529,169.559161 L681.576234,49.5777191 L561.926003,49.7203757 L542.193658,168.30909 L523.18621,188.917162 L382.282347,250.665201 L273.374716,179.173601 L221.547296,229.994933 Z M125.844433,362.679348 L352.500622,475.229777 C352.500622,475.229777 288.483863,584.340955 334.057089,714.556762 C379.630316,844.77257 497.333343,892.006759 497.333343,892.006759 L386.451131,1119.52059 L321.480358,1088.99682 L354.276557,963.206605 L250.599728,849.667936 L225.586796,837.983914 L105.027378,856.383354 L66.2079574,743.205393 L171.911567,685.939385 L185.208661,661.258159 L197.718769,507.927744 L94.6652766,428.228944 L125.844433,362.679348 Z" id="Gear" fill="#3EA6E9"></path>
        </g>
    </g>
</svg>